<?xml version="1.0" standalone="no"?>
<!DOCTYPE svg PUBLIC "-//W3C//DTD SVG 20010904//EN"
 "http://www.w3.org/TR/2001/REC-SVG-20010904/DTD/svg10.dtd">
<svg version="1.0" xmlns="http://www.w3.org/2000/svg"
 width="3508.000000pt" height="3508.000000pt" viewBox="0 0 3508.000000 3508.000000"
 preserveAspectRatio="xMidYMid meet">
<metadata>
Created by potrace 1.11, written by Peter Selinger 2001-2013
</metadata>
<g transform="translate(0.000000,3508.000000) scale(0.100000,-0.100000)"
fill="#000000" stroke="none">
<path d="M16960 34674 c-36 -2 -166 -8 -290 -14 -2545 -121 -5087 -836 -7330
-2063 -2443 -1337 -4522 -3237 -6057 -5538 -1639 -2454 -2598 -5219 -2833
-8164 -37 -470 -45 -714 -45 -1415 1 -588 8 -792 41 -1230 196 -2604 969
-5092 2279 -7340 1844 -3164 4692 -5684 8055 -7127 1757 -754 3679 -1220 5545
-1343 88 -5 187 -12 219 -15 255 -20 1314 -28 1722 -12 446 16 939 58 1454
123 3938 495 7613 2376 10339 5294 2637 2822 4230 6397 4561 10235 46 540 54
751 54 1460 1 673 -4 831 -40 1305 -196 2603 -969 5092 -2279 7340 -1018 1747
-2376 3339 -3947 4627 -2653 2176 -5881 3502 -9278 3812 -224 21 -409 34 -695
52 -162 10 -1338 20 -1475 13z m1265 -218 c17 -3 98 -7 180 -11 566 -22 1327
-105 1983 -216 5293 -893 9887 -4300 12297 -9119 1020 -2040 1604 -4210 1750
-6510 48 -752 40 -1653 -20 -2412 -365 -4597 -2580 -8822 -6161 -11755 -2503
-2050 -5541 -3338 -8744 -3707 -118 -14 -294 -32 -390 -41 -96 -8 -197 -17
-225 -20 -640 -59 -1659 -67 -2417 -20 -4501 281 -8679 2333 -11663 5730
-3038 3457 -4524 7969 -4144 12580 497 6049 4226 11381 9753 13950 2040 948
4213 1465 6536 1554 203 8 1207 5 1265 -3z"/>
<path d="M18290 17525 l0 -8215 28 0 c15 -1 1983 -2 4375 -3 l4347 -2 0 513 0
512 -3815 0 -3815 0 0 7705 0 7705 -560 0 -560 0 0 -8215z"/>
<path d="M10064 15123 c-25 -54 -106 -228 -180 -386 -74 -159 -139 -296 -143
-305 -12 -22 -79 -164 -131 -277 -90 -191 -339 -724 -380 -810 -24 -49 -67
-142 -97 -205 -30 -63 -147 -312 -259 -554 -113 -241 -209 -446 -214 -455 -5
-9 -25 -50 -44 -91 -19 -42 -55 -120 -81 -175 -26 -54 -110 -234 -187 -399
-77 -166 -146 -312 -154 -326 -7 -14 -33 -68 -57 -120 -25 -52 -113 -241 -197
-420 -84 -179 -178 -381 -210 -450 -32 -69 -83 -179 -115 -245 -106 -221 -143
-299 -209 -443 -36 -78 -66 -145 -66 -147 0 -3 581 -5 1290 -5 l1290 0 11 28
c6 15 21 51 35 80 21 45 96 212 221 492 13 30 35 78 48 105 39 86 75 164 160
355 93 208 177 392 196 431 4 9 52 117 107 240 55 123 117 260 137 304 21 44
87 190 147 325 60 135 120 268 133 295 38 80 82 177 171 377 45 103 95 213
109 245 15 32 35 76 45 98 10 22 34 74 53 115 19 41 56 123 82 183 27 59 54
107 62 107 7 0 13 5 13 10 0 7 935 10 2785 10 l2785 0 0 1055 0 1055 -3555 0
-3555 0 -46 -97z"/>
</g>
</svg>
